<?xml version="1.0" encoding="utf-8"?>
<!-- Generator: Adobe Illustrator 23.0.1, SVG Export Plug-In . SVG Version: 6.00 Build 0)  -->
<svg version="1.1" id="Capa_1" xmlns="http://www.w3.org/2000/svg" xmlns:xlink="http://www.w3.org/1999/xlink" x="0px" y="0px"
	 viewBox="0 0 512 512" style="enable-background:new 0 0 512 512;" xml:space="preserve">
<style type="text/css">
	.st0{fill:#DFAB3C;}
</style>
<g>
	<path class="st0" d="M251.1,440.1l-0.3-142.7l-122.9-71.6L5.2,297.1L5.5,441l122.4,71L251.1,440.1z M140.4,476l0.2-99.9l85.4-49.9
		l0.2,99.7L140.4,476z M127.9,254.5l85.8,50l-85.5,50l-85.8-50.2L127.9,254.5z M30.2,325.9l85.6,50.1l-0.2,100.1l-85.1-49.4
		L30.2,325.9z"/>
	<path class="st0" d="M383.6,225.8l-122.6,71.3l0.3,143.9l122.4,71l123.2-71.9l-0.3-142.7L383.6,225.8z M383.6,254.5l85.8,50
		l-85.5,50L298,304.3L383.6,254.5z M285.8,325.9l85.6,50.1l-0.2,100.1l-85.1-49.4L285.8,325.9z M396.1,476l0.2-99.9l85.4-49.9
		l0.2,99.7L396.1,476z"/>
	<path class="st0" d="M378.9,71.6L256,0L133.4,71.3l0.3,143.9l122.4,71l123.2-71.9L378.9,71.6z M256,28.7l85.8,50l-85.5,50
		l-85.8-50.2L256,28.7z M158.3,100.2l85.6,50.1l-0.2,100.1l-85.1-49.4L158.3,100.2z M268.5,250.2l0.2-99.9l85.4-49.9l0.2,99.7
		L268.5,250.2z"/>
</g>
</svg>
