<?xml version="1.0" encoding="utf-8"?>
<!-- Generator: Adobe Illustrator 23.0.1, SVG Export Plug-In . SVG Version: 6.00 Build 0)  -->
<svg version="1.1" id="Layer_1" xmlns="http://www.w3.org/2000/svg" xmlns:xlink="http://www.w3.org/1999/xlink" x="0px" y="0px"
	 viewBox="0 0 1000 1000" enable-background="new 0 0 1000 1000" xml:space="preserve">
<path d="M281.7,593.8c-17.1,2-57,12.5-70.2,20.2c-21.3,12.5-200.7,126-201.7,129.4c-1,2.4,1.5,15.7,38,68.9
	c23.8,44.6,59.4,87.1,61.2,88.5c3.8,3.2,2,7.5,45.1-22.6c20.7-14.5,39.9-26.5,46.2-28.5c14.7-5,30.7-6.6,43-4.4
	c5.6,1.2,78.7,20.9,161.4,51.4c90.1,33.3,151.8,54.5,158,55.1c21.9,2.4,13.4,8.4,232.7-143.2c111.8-77.5,138.2-97,140.4-99.2
	c2.4-2,39.4-33.1,42.6-38.9c5-9,12-15.4,12-28.3c-0.2-24.1-9.8-33.9-31.5-43.6c-10.2-4.4-36.2,10.3-47.3,13.9
	c-4,1.4-20.9,8.6-90.4,56.5l-128.8,84.3l0.6,13.5c1.4,26.7-7.4,48.4-26.9,66.7c-17.7,16.3-29.7,20.9-56.4,21.1l-36.6-8.1l-89.9-45.1
	c-92.5-46.4-106.2-53.8-107.8-58.8c-2.4-6.8,3.6-16.3,11.4-17.1c3.6-0.4,35.7,14.7,106.2,50.2c100,50.2,101.2,50.8,115.2,51.4
	c22.1,1.2,39.1-8,50.6-27.5c4.8-8,5.4-11.2,5.4-26.3c0-14.9-0.6-18.3-5.4-26.1c-2.8-5-7.8-11.4-11-14.5c-3-3-61.9-28.2-141-67.9
	c-82.1-33.8-144.8-66.8-175.9-68.8C323.8,595.4,289.5,593,281.7,593.8z"/>
<g>
	<circle fill="#DFAB3C" cx="659" cy="341.4" r="293.9"/>
	<linearGradient id="SVGID_1_" gradientUnits="userSpaceOnUse" x1="283.5828" y1="341.1604" x2="1203.8571" y2="341.1604">
		<stop  offset="0" style="stop-color:#1A1A1A"/>
		<stop  offset="1.086432e-02" style="stop-color:#191919"/>
		<stop  offset="0.2443" style="stop-color:#0B0B0B"/>
		<stop  offset="0.5279" style="stop-color:#030303"/>
		<stop  offset="1" style="stop-color:#000000"/>
	</linearGradient>
	<path fill="url(#SVGID_1_)" d="M748.3,380.7c-15.3,34.8-50.1,58.1-89.1,58.1c-53.6,0-97.3-43.6-97.3-97.3s43.6-97.3,97.3-97.3
		c38.8,0,73.5,23.1,88.9,57.6h55.7c-15.1-55.1-60.1-96.1-114.6-107.2v-24h-52.6v22.6c-72,10.9-127.3,73.2-127.3,148.2
		c0,72.1,51.2,132.5,119.2,146.7v23.3h52.6v-21.7c58.3-8.6,107.1-51,122.8-109.1H748.3z"/>
	<linearGradient id="SVGID_2_" gradientUnits="userSpaceOnUse" x1="283.5828" y1="341.1604" x2="1203.8571" y2="341.1604">
		<stop  offset="0" style="stop-color:#1A1A1A"/>
		<stop  offset="1.086432e-02" style="stop-color:#191919"/>
		<stop  offset="0.2443" style="stop-color:#0B0B0B"/>
		<stop  offset="0.5279" style="stop-color:#030303"/>
		<stop  offset="1" style="stop-color:#000000"/>
	</linearGradient>
	<path fill="url(#SVGID_2_)" d="M816,398.9C796.6,452,751.6,491.3,697.4,504v23.7h-85v-26c-26.6-7.7-51-22.1-71.1-42.2
		c-31.5-31.5-48.9-73.4-48.9-118c0-44.6,17.4-86.5,48.9-118c22.2-22.2,49.5-37.3,79.2-44.3v-24.7h85v26.7
		c50.7,14.6,92.4,52.8,110.7,103.4h55.1c-23-85.9-95.7-148.6-182-160.5v-22.2h-52.6v21.3c-50.1,5.1-96.5,27-132.6,63.1
		c-41.5,41.5-64.3,96.6-64.3,155.2s22.8,113.8,64.3,155.2c34.1,34.1,77.5,55.6,124.5,62.1v21.4h52.6V560
		c89.8-9,166.2-72.7,190-161.1H816z"/>
</g>
</svg>
